<svg height="496" viewBox="0 0 496 496" width="496" xmlns="http://www.w3.org/2000/svg">
  <path fill="#2172d7" d="M456 128h-96V81.785l-23.145-5.906c-.16-.39-.32-.781-.488-1.168l12.176-20.535-42.719-42.727-20.535 12.184c-.394-.168-.785-.328-1.168-.488L278.207 0h-60.422l-5.914 23.145c-.39.16-.781.32-1.168.488L190.168 11.44l-42.719 42.727 12.176 20.535c-.168.395-.328.785-.488 1.168L136 81.785V128H40c-22.055 0-40 17.945-40 40v240c0 22.055 17.945 40 40 40h104v32h-32v16h272v-16h-32v-32h104c22.055 0 40-17.945 40-40V168c0-22.055-17.945-40-40-40zM152 94.215l19.266-4.91 1.422-4.032a75.283 75.283 0 013.16-7.617l1.84-3.855-10.153-17.106 25.16-25.152 17.098 10.145 3.848-1.84a81.088 81.088 0 017.632-3.168l4.024-1.422L230.207 16h35.578l4.91 19.246 4.024 1.426c2.61.93 5.152 1.984 7.633 3.168l3.847 1.84 17.098-10.145 25.16 25.152-10.152 17.106 1.84 3.855a79.064 79.064 0 013.16 7.618l1.422 4.03L344 94.216v35.57l-19.266 4.91-1.421 4.032a75.283 75.283 0 01-3.16 7.617l-1.84 3.855 10.152 17.106-25.16 25.152-17.098-10.144-3.848 1.84a81.088 81.088 0 01-7.632 3.167l-4.024 1.422-4.91 19.258h-35.578l-4.91-19.246-4.024-1.426a80.233 80.233 0 01-7.633-3.168l-3.847-1.84-17.098 10.145-25.16-25.153 10.152-17.105-1.84-3.855a79.064 79.064 0 01-3.16-7.618l-1.422-4.03L152 129.784zM304 320v32h-26.586l-12.652-31.64 8.824-17.65 17.621 14.099 22.738-53.047 22.254 8.093c9.45 3.442 15.801 12.504 15.801 22.56V352h-32v-32zm-128 0v32h-32v-57.586c0-10.055 6.352-19.117 15.8-22.55l22.255-8.094 22.738 53.046 17.621-14.097 8.824 17.648L218.586 352H192v-32zm88-82.664l-16 21.328-16-21.328V224h32zM251.055 312h-6.102l-9.754-19.504L248 282.246l12.809 10.25zm-29.895-62.457l15.785 21.059-25.738 20.582-14.094-32.895zM245.414 328h5.16l9.602 24h-24.36zm39.379-36.816l-25.738-20.582 15.785-21.059 24.047 8.746zM40 144h102.992l16.145 4.121c.16.39.32.781.488 1.168l-12.176 20.535 42.719 42.727 20.535-12.184c.395.168.785.328 1.168.488l4.274 16.711H216v16.832l-61.672 22.426C138.574 262.551 128 277.656 128 294.414V368h240v-73.586c0-16.758-10.574-31.863-26.328-37.59L280 234.398v-16.832h-.145l4.274-16.71c.39-.16.781-.32 1.168-.489l20.535 12.184 42.719-42.727-12.176-20.535c.168-.394.328-.785.488-1.168L353.008 144H456c13.23 0 24 10.77 24 24v216H16V168c0-13.23 10.77-24 24-24zm296 336H160v-32h176zm120-48H40c-13.23 0-24-10.77-24-24v-8h464v8c0 13.23-10.77 24-24 24zm0 0"/>
  <path fill="#2172d7" d="M248 176c35.29 0 64-28.71 64-64s-28.71-64-64-64-64 28.71-64 64 28.71 64 64 64zm0-112c26.473 0 48 21.527 48 48s-21.527 48-48 48-48-21.527-48-48 21.527-48 48-48zm0 0"/>
  <path fill="#2172d7" d="M248 144c17.648 0 32-14.352 32-32s-14.352-32-32-32-32 14.352-32 32 14.352 32 32 32zm0-48c8.824 0 16 7.176 16 16s-7.176 16-16 16-16-7.176-16-16 7.176-16 16-16zm0 0M32 352h80v16H32zm0 0M32 320h80v16H32zm0 0M32 288h80v16H32zm0 0M384 160h80v16h-80zm0 0M384 192h80v16h-80zm0 0M384 224h80v16h-80zm0 0M384 256h80v16h-80zm0 0M32 256h80v16H32zm0 0"/>
</svg>
