<?xml version="1.0" encoding="UTF-8"?>
<svg width="195px" height="46px" viewBox="0 0 195 46" version="1.1" xmlns="http://www.w3.org/2000/svg" xmlns:xlink="http://www.w3.org/1999/xlink">
    <!-- Generator: Sketch 48.2 (47327) - http://www.bohemiancoding.com/sketch -->
    <title>mi_logo</title>
    <desc>Created with Sketch.</desc>
    <defs></defs>
    <g id="Page-1" stroke="none" stroke-width="1" fill="none" fill-rule="evenodd">
        <g id="mi_logo" fill="#fff">
            <g id="minhas-audiências" transform="translate(77.000000, 0.000000)">
                <g id="minhas">
                    <path d="M10.8945312,11.5371094 L10.9082031,12.015625 L10.9082031,20 L9.41796875,20 L9.41796875,12.2070312 C9.41796875,10.6484297 9.13769812,9.51139681 8.57714844,8.79589844 C8.01659876,8.08040007 7.19857309,7.72265625 6.12304688,7.72265625 C4.15428703,7.72265625 2.90104436,8.69790691 2.36328125,10.6484375 L2.36328125,20 L0.873046875,20 L0.873046875,6.68359375 L2.19921875,6.68359375 L2.3359375,8.88476562 C3.23828576,7.25324705 4.6555893,6.4375 6.58789062,6.4375 C8.67514064,6.4375 10.014971,7.43553689 10.6074219,9.43164062 C11.464197,7.43553689 12.9407447,6.4375 15.0371094,6.4375 C17.9993638,6.4375 19.4804688,8.36977234 19.4804688,12.234375 L19.4804688,20 L18.0039062,20 L18.0039062,12.2070312 C18.0039062,10.6119712 17.7281929,9.4658238 17.1767578,8.76855469 C16.6253228,8.07128558 15.8004612,7.72265625 14.7021484,7.72265625 C13.6038357,7.72265625 12.7356803,8.06217108 12.0976562,8.74121094 C11.4596322,9.42025079 11.0585946,10.3522076 10.8945312,11.5371094 Z M24.9355469,6.68359375 L24.9355469,20 L23.4726562,20 L23.4726562,6.68359375 L24.9355469,6.68359375 Z M24.9355469,0.8046875 L24.9355469,2.86914062 L23.4726562,2.86914062 L23.4726562,0.8046875 L24.9355469,0.8046875 Z M29.0097656,6.68359375 L30.3222656,6.68359375 L30.4453125,9.0078125 C31.3385461,7.29426227 32.7786359,6.4375 34.765625,6.4375 C36.2330803,6.4375 37.3382124,6.88183149 38.0810547,7.77050781 C38.8238969,8.65918413 39.1953125,10.0331938 39.1953125,11.8925781 L39.1953125,20 L37.71875,20 L37.71875,11.90625 C37.71875,10.4205655 37.4430366,9.35189128 36.8916016,8.70019531 C36.3401665,8.04849935 35.5403698,7.72265625 34.4921875,7.72265625 C33.4440052,7.72265625 32.5895215,7.9846979 31.9287109,8.50878906 C31.2679003,9.03288022 30.7871109,9.76431822 30.4863281,10.703125 L30.4863281,20 L29.0097656,20 L29.0097656,6.68359375 Z M48.875,6.4375 C51.773452,6.4375 53.2226562,8.22394047 53.2226562,11.796875 L53.2226562,20 L51.7460938,20 L51.7460938,11.7695312 C51.7460938,9.07160109 50.6796982,7.72265625 48.546875,7.72265625 C47.5533804,7.72265625 46.7148472,7.97786203 46.03125,8.48828125 C45.3476528,8.99870047 44.8417985,9.70963086 44.5136719,10.6210938 L44.5136719,20 L43.0371094,20 L43.0371094,0.8046875 L44.5136719,0.8046875 L44.5,8.96679688 C45.4388068,7.28059053 46.8971255,6.4375 48.875,6.4375 Z M60.4824219,20.3007812 C59.1972592,20.3007812 58.1946651,19.9612664 57.4746094,19.2822266 C56.7545537,18.6031867 56.3945312,17.6598368 56.3945312,16.4521484 C56.3945312,15.2444601 56.9254504,14.2737667 57.9873047,13.5400391 C59.049159,12.8063114 60.4824129,12.4394531 62.2871094,12.4394531 L65.2265625,12.4394531 L65.2265625,10.7851562 C65.2265625,9.82812021 64.921227,9.08073186 64.3105469,8.54296875 C63.6998667,8.00520564 62.8636121,7.73632812 61.8017578,7.73632812 C60.7399035,7.73632812 59.8694695,7.99153391 59.1904297,8.50195312 C58.5113898,9.01237234 58.171875,9.64582955 58.171875,10.4023438 L56.8183594,10.3886719 L56.7910156,10.3203125 C56.7454425,9.29947406 57.208003,8.40397521 58.1787109,7.63378906 C59.1494189,6.86360292 60.3730395,6.47851562 61.8496094,6.47851562 C63.3261793,6.47851562 64.5019487,6.85676705 65.3769531,7.61328125 C66.2519575,8.36979545 66.6894531,9.43619104 66.6894531,10.8125 L66.6894531,17.3613281 C66.6894531,18.2819056 66.8033843,19.1705686 67.03125,20.0273438 L65.4863281,20.0546875 C65.3040355,19.2526002 65.2128906,18.527998 65.2128906,17.8808594 C64.6933568,18.6100297 64.0234416,19.1956358 63.203125,19.6376953 C62.3828084,20.0797548 61.4759164,20.3007812 60.4824219,20.3007812 Z M57.8574219,16.5273438 C57.8574219,17.2656287 58.1080704,17.8603493 58.609375,18.3115234 C59.1106796,18.7626976 59.8375603,18.9882812 60.7900391,18.9882812 C61.7425178,18.9882812 62.6266235,18.7444686 63.4423828,18.2568359 C64.2581421,17.7692033 64.8528627,17.1289102 65.2265625,16.3359375 L65.2265625,13.5605469 L62.2597656,13.5605469 C60.9381444,13.5605469 59.8740275,13.8408175 59.0673828,14.4013672 C58.2607382,14.9619169 57.8574219,15.6705686 57.8574219,16.5273438 Z M75.1386719,19.0429688 L75.1386719,19.0292969 C76.1868542,19.0292969 77.0231089,18.7991559 77.6474609,18.3388672 C78.271813,17.8785784 78.5839844,17.3134799 78.5839844,16.6435547 C78.5839844,15.9736295 78.3173855,15.4153668 77.7841797,14.96875 C77.2509739,14.5221332 76.3372461,14.1529963 75.0429688,13.8613281 C73.4023355,13.5058576 72.2151729,13.0432971 71.4814453,12.4736328 C70.7477177,11.9039685 70.3808594,11.1041718 70.3808594,10.0742188 C70.3808594,9.04426568 70.8137978,8.18522479 71.6796875,7.49707031 C72.5455772,6.80891583 73.7008391,6.46484375 75.1455078,6.46484375 C76.5901765,6.46484375 77.7522742,6.82942344 78.6318359,7.55859375 C79.5113976,8.28776406 79.9329429,9.22655676 79.8964844,10.375 L79.8691406,10.4433594 L78.5019531,10.4433594 C78.5019531,9.68684518 78.1852245,9.04427348 77.5517578,8.515625 C76.9182911,7.98697652 76.0888723,7.72265625 75.0634766,7.72265625 C74.0380808,7.72265625 73.24512,7.94368269 72.6845703,8.38574219 C72.1240206,8.82780169 71.84375,9.37922847 71.84375,10.0400391 C71.84375,10.7008497 72.0875627,11.224933 72.5751953,11.6123047 C73.062828,11.9996764 74.0494717,12.3574202 75.5351562,12.6855469 C77.0208408,13.0136735 78.1464805,13.4853485 78.9121094,14.1005859 C79.6777382,14.7158234 80.0605469,15.5589139 80.0605469,16.6298828 C80.0605469,17.7008517 79.6116581,18.5781216 78.7138672,19.2617188 C77.8160762,19.9453159 76.6015702,20.2871094 75.0703125,20.2871094 C73.5390548,20.2871094 72.3040412,19.9111366 71.3652344,19.1591797 C70.4264276,18.4072228 69.9798175,17.4798232 70.0253906,16.3769531 L70.0527344,16.2949219 L71.40625,16.2949219 C71.4609378,17.2154994 71.8323533,17.9036436 72.5205078,18.359375 C73.2086623,18.8151064 74.0813749,19.0429688 75.1386719,19.0429688 Z"></path>
                </g>
                <g id="audiências" transform="translate(0.000000, 22.000000)">
                    <path d="M4.359375,21.3007812 C3.07421232,21.3007812 2.07161818,20.9612664 1.3515625,20.2822266 C0.631506816,19.6031867 0.271484375,18.6598368 0.271484375,17.4521484 C0.271484375,16.2444601 0.802403545,15.2737667 1.86425781,14.5400391 C2.92611208,13.8063114 4.35936598,13.4394531 6.1640625,13.4394531 L9.10351562,13.4394531 L9.10351562,11.7851562 C9.10351562,10.8281202 8.79818014,10.0807319 8.1875,9.54296875 C7.57681986,9.00520564 6.74056521,8.73632812 5.67871094,8.73632812 C4.61685667,8.73632812 3.74642267,8.99153391 3.06738281,9.50195312 C2.38834296,10.0123723 2.04882812,10.6458296 2.04882812,11.4023438 L0.6953125,11.3886719 L0.66796875,11.3203125 C0.622395605,10.2994741 1.08495608,9.40397521 2.05566406,8.63378906 C3.02637204,7.86360292 4.24999262,7.47851563 5.7265625,7.47851563 C7.20313238,7.47851563 8.37890187,7.85676705 9.25390625,8.61328125 C10.1289106,9.36979545 10.5664062,10.436191 10.5664062,11.8125 L10.5664062,18.3613281 C10.5664062,19.2819056 10.6803374,20.1705686 10.9082031,21.0273438 L9.36328125,21.0546875 C9.18098867,20.2526002 9.08984375,19.527998 9.08984375,18.8808594 C8.5703099,19.6100297 7.90039473,20.1956358 7.08007812,20.6376953 C6.25976152,21.0797548 5.35286955,21.3007812 4.359375,21.3007812 Z M1.734375,17.5273438 C1.734375,18.2656287 1.98502354,18.8603493 2.48632813,19.3115234 C2.98763271,19.7626976 3.71451347,19.9882812 4.66699219,19.9882812 C5.61947091,19.9882812 6.50357665,19.7444686 7.31933594,19.2568359 C8.13509522,18.7692033 8.72981584,18.1289102 9.10351562,17.3359375 L9.10351562,14.5605469 L6.13671875,14.5605469 C4.81509756,14.5605469 3.7509806,14.8408175 2.94433594,15.4013672 C2.13769128,15.9619169 1.734375,16.6705686 1.734375,17.5273438 Z M18.9335937,21.2871094 C17.4934824,21.2871094 16.3860716,20.8017627 15.6113281,19.8310547 C14.8365847,18.8603467 14.4492187,17.3951921 14.4492187,15.4355469 L14.4492187,7.7109375 L15.9257812,7.7109375 L15.9257812,15.4492188 C15.9257812,17.0442788 16.1923801,18.2018193 16.7255859,18.921875 C17.2587917,19.6419307 18.0540312,20.0019531 19.1113281,20.0019531 C21.2532659,20.0019531 22.606768,19.0631604 23.171875,17.1855469 L23.171875,7.7109375 L24.6484375,7.7109375 L24.6484375,21.0273438 L23.3359375,21.0273438 L23.2265625,18.8535156 C22.3424435,20.4759196 20.9114682,21.2871094 18.9335937,21.2871094 Z M27.9433594,14.7382812 L27.9433594,14.4785156 C27.9433594,12.3274632 28.3945267,10.6207745 29.296875,9.35839844 C30.1992233,8.09602233 31.4479087,7.46484375 33.0429687,7.46484375 C34.8567799,7.46484375 36.2330682,8.2213466 37.171875,9.734375 L37.171875,1.83203125 L38.6347656,1.83203125 L38.6347656,21.0273438 L37.3359375,21.0273438 L37.2128906,19.0996094 C36.2740838,20.55795 34.8841238,21.2871094 33.0429687,21.2871094 C31.4479087,21.2871094 30.1992233,20.6992246 29.296875,19.5234375 C28.3945267,18.3476504 27.9433594,16.7526142 27.9433594,14.7382812 Z M29.4199219,14.4785156 L29.4199219,14.7382812 C29.4199219,16.3971437 29.745765,17.689123 30.3974609,18.6142578 C31.0491569,19.5393926 32.0130145,20.0019531 33.2890625,20.0019531 C35.1211029,20.0019531 36.4108036,19.1998778 37.1582031,17.5957031 L37.1582031,11.3476562 C36.4016889,9.61587676 35.1211028,8.75 33.3164062,8.75 C32.0494728,8.75 31.0833367,9.26724743 30.4179687,10.3017578 C29.7526008,11.3362682 29.4199219,12.7285069 29.4199219,14.4785156 Z M44.1992187,7.68359375 L44.1992187,21 L42.7363281,21 L42.7363281,7.68359375 L44.1992187,7.68359375 Z M44.1992187,1.8046875 L44.1992187,3.86914062 L42.7363281,3.86914062 L42.7363281,1.8046875 L44.1992187,1.8046875 Z M56.75,12.796875 C56.75,11.6119732 56.4082065,10.6367226 55.7246094,9.87109375 C55.0410122,9.10546492 54.1386775,8.72265625 53.0175781,8.72265625 C51.8964788,8.72265625 50.9645219,9.1328084 50.2216797,9.953125 C49.4788374,10.7734416 49.0481777,11.8216082 48.9296875,13.0976562 L48.9570312,13.1660156 L56.75,13.1660156 L56.75,12.796875 Z M53.1542969,21.2871094 C51.4772052,21.2871094 50.0895237,20.6718812 48.9912109,19.4414062 C47.8928982,18.2109313 47.34375,16.6523532 47.34375,14.765625 L47.34375,14.0820312 C47.34375,12.1861884 47.8860623,10.6093813 48.9707031,9.3515625 C50.055344,8.09374371 51.3997316,7.46484375 53.0039062,7.46484375 C54.6080809,7.46484375 55.877274,7.97753394 56.8115234,9.00292969 C57.7457729,10.0283254 58.2128906,11.4114496 58.2128906,13.1523438 L58.2128906,14.4101562 L48.8203125,14.4101562 L48.8203125,14.765625 C48.8203125,16.2968827 49.2190715,17.5592398 50.0166016,18.5527344 C50.8141316,19.5462289 51.8600196,20.0429688 53.1542969,20.0429688 C54.8860764,20.0429688 56.2213495,19.5507862 57.1601562,18.5664062 L57.7890625,19.578125 C56.6770778,20.7174536 55.1321713,21.2871094 53.1542969,21.2871094 Z M56.7910156,3.80078125 L55.4238281,3.80078125 L53.3457031,1.54492187 L51.2949219,3.80078125 L49.9550781,3.80078125 L49.9550781,3.63671875 L52.8808594,0.505859375 L53.8242187,0.505859375 L56.7910156,3.67773437 L56.7910156,3.80078125 Z M61.2890625,7.68359375 L62.6015625,7.68359375 L62.7246094,10.0078125 C63.617843,8.29426227 65.0579328,7.4375 67.0449219,7.4375 C68.5123771,7.4375 69.6175093,7.88183149 70.3603516,8.77050781 C71.1031938,9.65918413 71.4746094,11.0331938 71.4746094,12.8925781 L71.4746094,21 L69.9980469,21 L69.9980469,12.90625 C69.9980469,11.4205655 69.7223335,10.3518913 69.1708984,9.70019531 C68.6194634,9.04849935 67.8196667,8.72265625 66.7714844,8.72265625 C65.7233021,8.72265625 64.8688184,8.9846979 64.2080078,9.50878906 C63.5471972,10.0328802 63.0664078,10.7643182 62.765625,11.703125 L62.765625,21 L61.2890625,21 L61.2890625,7.68359375 Z M76.0410156,14.6289062 L76.0273437,14.6289062 C76.0273437,16.2877687 76.3805303,17.6048128 77.0869141,18.5800781 C77.7932978,19.5553434 78.843743,20.0429688 80.2382812,20.0429688 C81.2591197,20.0429688 82.1318323,19.7558622 82.8564453,19.1816406 C83.5810583,18.607419 83.9433594,17.8418017 83.9433594,16.8847656 L85.2421875,16.8847656 L85.2695312,16.953125 C85.3151044,18.1653706 84.8365936,19.190751 83.8339844,20.0292969 C82.8313752,20.8678427 81.6373767,21.2871094 80.2519531,21.2871094 C78.4654859,21.2871094 77.0709686,20.678717 76.0683594,19.4619141 C75.0657502,18.2451111 74.5644531,16.6341246 74.5644531,14.6289062 L74.5644531,14.109375 C74.5644531,12.1223859 75.0680288,10.5182353 76.0751953,9.296875 C77.0823618,8.07551473 78.4700432,7.46484375 80.2382812,7.46484375 C81.7239658,7.46484375 82.9475863,7.90006075 83.9091797,8.77050781 C84.870773,9.64095487 85.3333335,10.7688733 85.296875,12.1542969 L85.2695312,12.2363281 L83.9570312,12.2363281 C83.9570312,11.1790312 83.6061233,10.3291048 82.9042969,9.68652344 C82.2024704,9.0439421 81.3138075,8.72265625 80.2382812,8.72265625 C78.8619723,8.72265625 77.8183629,9.21256021 77.1074219,10.1923828 C76.3964808,11.1722054 76.0410156,12.4778564 76.0410156,14.109375 L76.0410156,14.6289062 Z M90.0273438,7.68359375 L90.0273438,21 L88.5644531,21 L88.5644531,7.68359375 L90.0273438,7.68359375 Z M90.0273438,1.8046875 L90.0273438,3.86914062 L88.5644531,3.86914062 L88.5644531,1.8046875 L90.0273438,1.8046875 Z M97.5195312,21.3007812 C96.2343686,21.3007812 95.2317744,20.9612664 94.5117187,20.2822266 C93.7916631,19.6031867 93.4316406,18.6598368 93.4316406,17.4521484 C93.4316406,16.2444601 93.9625598,15.2737667 95.0244141,14.5400391 C96.0862683,13.8063114 97.5195222,13.4394531 99.3242187,13.4394531 L102.263672,13.4394531 L102.263672,11.7851562 C102.263672,10.8281202 101.958336,10.0807319 101.347656,9.54296875 C100.736976,9.00520564 99.9007215,8.73632812 98.8388672,8.73632812 C97.7770129,8.73632812 96.9065789,8.99153391 96.2275391,9.50195312 C95.5484992,10.0123723 95.2089844,10.6458296 95.2089844,11.4023438 L93.8554687,11.3886719 L93.828125,11.3203125 C93.7825519,10.2994741 94.2451123,9.40397521 95.2158203,8.63378906 C96.1865283,7.86360292 97.4101489,7.47851563 98.8867187,7.47851563 C100.363289,7.47851563 101.539058,7.85676705 102.414062,8.61328125 C103.289067,9.36979545 103.726562,10.436191 103.726562,11.8125 L103.726562,18.3613281 C103.726562,19.2819056 103.840494,20.1705686 104.068359,21.0273438 L102.523437,21.0546875 C102.341145,20.2526002 102.25,19.527998 102.25,18.8808594 C101.730466,19.6100297 101.060551,20.1956358 100.240234,20.6376953 C99.4199178,21.0797548 98.5130258,21.3007812 97.5195312,21.3007812 Z M94.8945312,17.5273438 C94.8945312,18.2656287 95.1451798,18.8603493 95.6464844,19.3115234 C96.147789,19.7626976 96.8746697,19.9882812 97.8271484,19.9882812 C98.7796272,19.9882812 99.6637329,19.7444686 100.479492,19.2568359 C101.295251,18.7692033 101.889972,18.1289102 102.263672,17.3359375 L102.263672,14.5605469 L99.296875,14.5605469 C97.9752538,14.5605469 96.9111368,14.8408175 96.1044922,15.4013672 C95.2978475,15.9619169 94.8945312,16.6705686 94.8945312,17.5273438 Z M112.175781,20.0429688 L112.175781,20.0292969 C113.223964,20.0292969 114.060218,19.7991559 114.68457,19.3388672 C115.308922,18.8785784 115.621094,18.3134799 115.621094,17.6435547 C115.621094,16.9736295 115.354495,16.4153668 114.821289,15.96875 C114.288083,15.5221332 113.374355,15.1529963 112.080078,14.8613281 C110.439445,14.5058576 109.252282,14.0432971 108.518555,13.4736328 C107.784827,12.9039685 107.417969,12.1041718 107.417969,11.0742188 C107.417969,10.0442657 107.850907,9.18522479 108.716797,8.49707031 C109.582687,7.80891583 110.737949,7.46484375 112.182617,7.46484375 C113.627286,7.46484375 114.789384,7.82942344 115.668945,8.55859375 C116.548507,9.28776406 116.970052,10.2265568 116.933594,11.375 L116.90625,11.4433594 L115.539062,11.4433594 C115.539062,10.6868452 115.222334,10.0442735 114.588867,9.515625 C113.9554,8.98697652 113.125982,8.72265625 112.100586,8.72265625 C111.07519,8.72265625 110.282229,8.94368269 109.72168,9.38574219 C109.16113,9.82780169 108.880859,10.3792285 108.880859,11.0400391 C108.880859,11.7008497 109.124672,12.224933 109.612305,12.6123047 C110.099937,12.9996764 111.086581,13.3574202 112.572266,13.6855469 C114.05795,14.0136735 115.18359,14.4853485 115.949219,15.1005859 C116.714848,15.7158234 117.097656,16.5589139 117.097656,17.6298828 C117.097656,18.7008517 116.648768,19.5781216 115.750977,20.2617188 C114.853186,20.9453159 113.63868,21.2871094 112.107422,21.2871094 C110.576164,21.2871094 109.341151,20.9111366 108.402344,20.1591797 C107.463537,19.4072228 107.016927,18.4798232 107.0625,17.3769531 L107.089844,17.2949219 L108.443359,17.2949219 C108.498047,18.2154994 108.869463,18.9036436 109.557617,19.359375 C110.245772,19.8151064 111.118484,20.0429688 112.175781,20.0429688 Z"></path>
                </g>
            </g>
            <path d="M10.9590732,45.8303342 C5.8950017,45.1742931 1.03439733,40.5254499 0.175313761,35.5033419 C-0.0507608617,34.1686375 -0.0620645929,30.9336761 0.16401003,29.5989717 C0.537033156,27.3367609 1.75783612,25.0293059 3.60034429,23.1064267 C5.3863338,21.2514139 8.00879942,19.7922879 10.5295315,19.2606684 C10.7782135,19.2041131 10.8460359,19.1136247 10.9138583,18.762982 C11.2077553,17.0323907 11.9198904,15.1886889 12.8354926,13.7974293 C13.4571978,12.8586118 15.13015,11.1619537 16.1135746,10.4832905 C17.232644,9.7028278 18.6456104,9.0580977 19.9794507,8.707455 C20.9289641,8.4586118 21.3245947,8.4133676 22.8279909,8.4133676 C24.7948401,8.4020566 25.8460871,8.5943445 27.4286095,9.2616967 L28.2989968,9.6123393 L28.5815901,9.2390745 C30.3788833,6.8750643 32.6509333,4.9748072 35.2055765,3.70796915 C37.918472,2.36195373 39.6253353,2 43.2764405,2 C45.9102098,2 47.0066718,2.12442159 48.6570165,2.63341902 C51.4603418,3.48174807 53.8002142,4.929563 56.0609604,7.1917738 C58.807767,9.951671 60.3450745,12.7681234 61.1589431,16.5912596 C61.373714,17.5866324 61.4189289,18.140874 61.4189289,20.0298201 L61.4302327,22.2920308 L61.9841155,22.8010283 C63.9848759,24.6899743 65.4769684,27.4724936 65.8386878,29.9948586 C66.1551923,32.3023136 65.99694,35.2092545 65.4430572,36.8380463 C65.0700341,37.9691517 64.1657356,39.6205656 63.351867,40.7064267 C61.7693446,42.8102828 59.5199021,44.4503856 56.9652589,45.366581 C55.235788,45.9886889 54.7949425,46.0113111 38.6984294,45.9773779 L23.9809715,45.9434447 L31.0797146,38.2066838 C34.9795019,33.9424165 38.2236727,30.4359897 38.2914951,30.4133676 C38.3593175,30.3907455 38.8905928,30.8205656 39.4670831,31.3521851 C40.0435734,31.8951157 41.196554,32.8452442 42.0217263,33.4673522 C42.835595,34.1007712 43.5138189,34.6323907 43.5138189,34.6663239 C43.5138189,34.688946 43.2877442,34.9151671 43.005151,35.1640103 C42.372142,35.7182519 42.1573711,36.1254499 42.1573711,36.7136247 C42.1573711,37.3131105 42.3608383,37.7203085 42.7338614,37.9239075 C43.1407957,38.1275064 43.886842,38.1275064 44.2824726,37.9239075 C44.4520285,37.833419 46.8936345,35.4467866 49.7082635,32.6190231 C54.0715037,28.2529563 54.8514612,27.4272494 54.9305873,27.0652956 C55.111447,26.2622108 54.6706015,25.4817481 53.9471627,25.3460154 C53.2463313,25.2102828 52.7941821,25.3912596 52.1385657,26.0473008 C51.7994538,26.3866324 51.5055567,26.6580977 51.4829493,26.6580977 C51.4603418,26.6580977 50.9855851,26.0699229 50.443006,25.3460154 C47.6057695,21.5681234 44.0337905,18.3784062 40.3261667,16.3197943 C39.8966249,16.0822622 39.557513,15.8560411 39.557513,15.822108 C39.557513,15.7768638 39.975751,15.3244216 40.4957226,14.8041131 L41.4226286,13.8766067 L41.4226286,13.1979434 C41.4226286,12.6210797 41.3774137,12.485347 41.1174279,12.2251928 C40.7444047,11.840617 39.8740174,11.7275064 39.3766533,11.9876607 C39.1957936,12.0894602 36.7202765,14.4987147 33.8830399,17.3491003 C28.2650856,22.9820051 28.3894266,22.8236504 28.7059311,23.7737789 C28.8980945,24.3732648 29.3954587,24.6447301 30.1528087,24.5881748 C30.729299,24.5429306 30.7858176,24.5089974 31.6222937,23.6832905 C32.1083542,23.1969152 32.5491997,22.8123393 32.6170221,22.8123393 C32.6848444,22.8123393 33.080475,23.4005141 33.5100168,24.1244216 C33.9395586,24.848329 34.7986422,26.103856 35.4090436,26.9069409 L36.528113,28.3886889 L36.2003048,28.6940874 C36.0307489,28.8637532 32.5491997,32.0421594 28.4798565,35.7634961 C24.4105133,39.4848329 20.2281328,43.3079692 19.1881895,44.2580977 L17.3004664,46 L14.666697,45.9886889 C13.2198195,45.9773779 11.5468673,45.9095116 10.9590732,45.8303342 Z M25.1113446,35.6503856 L33.3291571,28.1285347 L32.7413631,27.3028278 L32.1535691,26.4771208 L31.5318639,26.7598972 C30.7519064,27.1105398 29.6215333,27.144473 28.7285386,26.8390746 C27.9824923,26.5902314 26.987764,25.6966581 26.5808296,24.9161954 C26.3208438,24.4071979 26.2756289,24.203599 26.2756289,23.2647815 C26.2756289,22.3598972 26.3208438,22.0997429 26.5469184,21.6246787 C26.7616893,21.1835476 28.0050998,19.8714653 32.0857467,15.7655527 C35.0021093,12.8246787 37.6358787,10.2796915 37.9975981,10.0421594 C39.9531436,8.7300771 42.5869129,9.5105399 43.6042487,11.7048843 C44.0224868,12.6097686 44.0224868,13.7861183 43.6042487,14.6796915 L43.3103517,15.3131105 L44.350295,16.0596401 C46.6110412,17.6658098 49.4821889,20.3578406 51.0873187,22.3372751 C51.5846829,22.959383 51.8785799,23.2308483 51.9916172,23.1856041 C53.1898127,22.7218509 54.1506298,22.7557841 55.235788,23.2760925 C56.0157455,23.6493573 56.6826656,24.3280206 57.0895999,25.1650386 C57.3043708,25.5948586 57.3608895,25.877635 57.3608895,26.6580977 C57.3608895,28.3095116 57.5756604,28.0267352 51.2229635,34.3835476 C45.1641636,40.4349614 45.2206822,40.3897172 43.8755382,40.5254499 C41.2643764,40.7969152 39.09406,38.1953728 39.8288025,35.6843188 C39.9305361,35.3336761 40.0096622,35.0282776 40.0096622,34.9943445 C40.0096622,34.9151671 38.4271399,33.637018 38.3932287,33.6822622 C38.2801913,33.8293059 30.7179952,42.0863753 30.2432385,42.5840617 L29.6667482,43.1835476 L41.9312965,43.1383033 C55.2696992,43.1043702 54.523653,43.1383033 56.287035,42.4822622 C61.6789148,40.4802057 64.4370251,34.6323907 62.6058207,29.0899743 C61.9954192,27.2688946 60.8198312,25.5269923 59.4633835,24.4524422 C59.0677529,24.1357326 58.6156036,23.78509 58.4573514,23.6493573 L58.1747581,23.4118252 L58.3330103,22.3485861 C58.7964633,19.2493573 58.2990991,16.037018 56.9313477,13.2544987 C54.7949425,8.911054 50.7482068,5.8570694 45.9780322,4.9861183 C44.5424584,4.714653 41.8747778,4.714653 40.5296338,4.9861183 C37.4324115,5.5856041 34.6743011,7.022108 32.5491997,9.114653 C31.441434,10.2118252 30.7745139,11.0714653 29.8702154,12.6097686 C29.5311035,13.1753213 29.2372065,13.6503856 29.2259027,13.6503856 C29.2032953,13.6503856 28.8415759,13.4128535 28.4120341,13.1300771 C26.5582222,11.8745501 24.9643961,11.3655527 22.8845096,11.3655527 C21.268076,11.3655527 20.2055253,11.6030848 18.7925589,12.2930591 C16.5657239,13.3902314 15.005809,15.2113111 14.2145478,17.6092545 C13.9206508,18.5254499 13.8641321,18.9100257 13.8076135,20.1881748 C13.7397911,21.9526992 13.8754359,21.8056555 12.145965,22.0092545 C8.02010315,22.4956298 4.59507263,25.266838 3.28383982,29.2143959 C1.22656075,35.3676093 5.17156291,41.9167095 11.5694747,42.9912596 C12.1007501,43.0817481 13.3893754,43.1496144 14.6893045,43.1609254 L16.8935321,43.1722365 L25.1113446,35.6503856 Z" id="Shape" fill-rule="nonzero"></path>
        </g>
    </g>
</svg>
